<?xml version="1.0" standalone="no"?>
<!DOCTYPE svg PUBLIC "-//W3C//DTD SVG 20010904//EN"
 "http://www.w3.org/TR/2001/REC-SVG-20010904/DTD/svg10.dtd">
<svg version="1.0" xmlns="http://www.w3.org/2000/svg"
 width="654.000000pt" height="654.000000pt" viewBox="0 0 654.000000 654.000000"
 preserveAspectRatio="xMidYMid meet">
<metadata>
Created by potrace 1.14, written by Peter Selinger 2001-2017
</metadata>
<g transform="translate(0.000000,654.000000) scale(0.100000,-0.100000)"
fill="#000000" stroke="none">
<path d="M1633 6533 c900 -2 2374 -2 3275 0 900 1 163 2 -1638 2 -1801 0
-2538 -1 -1637 -2z"/>
<path d="M8 4853 c7 -3 16 -2 19 1 4 3 -2 6 -13 5 -11 0 -14 -3 -6 -6z"/>
<path d="M0 2420 l0 -2420 3033 1 c1667 1 3043 5 3057 9 l25 8 -25 1 c-20 1
-22 3 -10 11 11 7 6 10 -20 11 -32 1 -33 2 -10 9 24 8 24 8 3 9 -13 1 -23 6
-23 11 0 6 -15 10 -32 11 -31 1 -32 1 -8 9 l25 8 -25 1 c-20 1 -22 3 -10 11
11 7 6 10 -20 10 -26 0 -31 3 -20 10 13 9 13 10 0 10 -13 0 -13 1 0 10 11 7 6
10 -20 10 -26 0 -31 3 -20 10 12 8 10 10 -10 10 -20 0 -22 2 -10 10 11 7 6 10
-20 10 -26 0 -31 3 -20 10 13 9 13 10 0 10 -13 0 -13 1 0 10 11 7 3 10 -30 11
-38 1 -41 2 -20 9 l25 8 -25 1 c-20 1 -22 3 -10 11 11 7 6 10 -20 10 -26 0
-31 3 -20 10 13 9 13 10 0 10 -13 0 -13 1 0 10 11 7 3 10 -30 11 -38 1 -41 2
-20 9 l25 8 -25 1 c-20 1 -22 3 -10 11 11 7 6 10 -20 10 -26 0 -31 3 -20 10
12 8 10 10 -10 10 -20 0 -22 2 -10 10 11 7 6 10 -20 11 -32 1 -33 2 -10 9 l25
8 -25 1 c-20 1 -22 3 -10 11 11 7 6 10 -20 10 -26 0 -31 3 -20 10 13 9 13 10
0 10 -13 0 -13 1 0 10 11 7 3 10 -30 11 -38 1 -41 2 -20 9 l25 8 -25 1 c-20 1
-22 3 -10 11 11 7 6 10 -20 10 -26 0 -31 3 -20 10 12 8 10 10 -10 10 -20 0
-22 2 -10 10 11 7 6 10 -20 10 -26 0 -31 3 -20 10 13 9 13 10 0 10 -13 0 -13
1 0 10 11 7 6 10 -20 10 -26 0 -31 3 -20 10 13 9 13 10 0 10 -13 0 -13 1 0 10
11 7 3 10 -30 11 -38 1 -41 2 -20 9 l25 8 -25 1 c-20 1 -22 3 -10 11 11 7 3
10 -30 11 -38 1 -41 2 -20 9 l25 8 -25 1 c-20 1 -22 3 -10 11 11 7 6 10 -20
10 -26 0 -31 3 -20 10 13 9 13 10 0 10 -13 0 -13 1 0 10 11 7 6 10 -20 10 -26
0 -31 3 -20 10 13 9 13 10 0 10 -13 0 -13 1 0 10 11 7 3 10 -30 11 -38 1 -41
2 -20 9 l25 8 -25 1 c-20 1 -22 3 -10 11 11 7 6 10 -20 10 -26 0 -31 3 -20 10
12 8 10 10 -10 10 -20 0 -22 2 -10 10 11 7 6 10 -20 10 -26 0 -31 3 -20 10 13
9 13 10 0 10 -13 0 -13 1 0 10 11 7 6 10 -20 10 -26 0 -31 3 -20 10 13 9 13
10 0 10 -13 0 -13 1 0 10 11 7 3 10 -30 11 -38 1 -41 2 -20 9 l25 8 -25 1
c-20 1 -22 3 -10 11 11 7 3 10 -30 11 -38 1 -41 2 -20 9 l25 8 -25 1 c-20 1
-22 3 -10 11 11 7 6 10 -20 10 -26 0 -31 3 -20 10 13 9 13 10 0 10 -13 0 -13
1 0 10 11 7 6 10 -20 11 -19 0 -29 3 -23 6 24 9 -14 33 -54 34 l-38 2 35 7 35
7 -35 3 c-33 2 -33 3 -10 10 21 7 18 8 -20 10 -38 2 -41 3 -20 10 l25 8 -25 1
c-20 1 -22 3 -10 11 11 7 6 10 -20 10 -26 0 -31 3 -20 10 13 9 13 10 0 10 -13
0 -13 1 0 10 11 7 6 10 -20 11 -19 0 -29 3 -23 6 21 8 -12 33 -44 33 -22 0
-25 2 -13 10 13 9 13 10 0 10 -13 0 -13 1 0 10 11 7 3 10 -30 11 -38 1 -41 2
-20 9 l25 8 -25 1 c-20 1 -22 3 -10 11 11 7 6 10 -20 10 -26 0 -31 3 -20 10
13 9 13 10 0 10 -13 0 -13 1 0 10 11 7 6 10 -20 10 -26 0 -31 3 -20 10 12 8
10 10 -10 10 -20 0 -22 2 -10 10 11 7 3 10 -30 11 -38 1 -41 2 -20 9 l25 8
-25 1 c-20 1 -22 3 -10 11 11 7 6 10 -20 11 -32 1 -33 2 -10 9 l25 8 -25 1
c-20 1 -22 3 -10 11 11 7 6 10 -20 10 -26 0 -31 3 -20 10 13 9 13 10 0 10 -13
0 -13 1 0 10 11 7 6 10 -20 10 -26 0 -31 3 -20 10 12 8 10 10 -10 10 -20 0
-22 2 -10 10 11 7 3 10 -30 11 -38 1 -41 2 -20 9 l25 8 -25 1 c-20 1 -22 3
-10 11 11 7 6 10 -20 11 -32 1 -33 2 -10 9 l25 8 -25 1 c-20 1 -22 3 -10 11
12 8 10 10 -10 10 -20 0 -22 2 -10 10 11 7 3 10 -30 11 -38 1 -41 2 -20 9 l25
8 -25 1 c-20 1 -22 3 -10 11 11 7 6 10 -20 10 -26 0 -31 3 -20 10 13 9 13 10
0 10 -13 0 -13 1 0 10 11 7 6 10 -20 11 -19 0 -29 3 -23 6 24 9 -14 33 -54 34
l-38 2 35 7 c28 6 30 8 10 9 -20 1 -22 3 -10 11 11 7 3 10 -30 11 -38 1 -41 2
-20 9 l25 8 -25 1 c-20 1 -22 3 -10 11 11 7 6 10 -20 10 -26 0 -31 3 -20 10
13 9 13 10 0 10 -13 0 -13 1 0 10 11 7 6 10 -20 11 -19 0 -29 3 -23 6 21 8
-12 33 -44 33 -22 0 -25 2 -13 10 13 9 13 10 0 10 -13 0 -13 1 0 10 11 7 3 10
-30 11 -38 1 -41 2 -20 9 l25 8 -25 1 c-20 1 -22 3 -10 11 11 7 6 10 -20 10
-26 0 -31 3 -20 10 13 9 13 10 0 10 -13 0 -13 1 0 10 11 7 6 10 -20 10 -26 0
-31 3 -20 10 12 8 10 10 -10 10 -20 0 -22 2 -10 10 11 7 3 10 -30 11 l-45 2
35 7 35 7 -35 2 c-27 1 -31 4 -20 11 11 7 6 10 -20 11 -32 1 -33 2 -10 9 l25
8 -25 1 c-20 1 -22 3 -10 11 11 7 6 10 -20 10 -26 0 -31 3 -20 10 13 9 13 10
0 10 -13 0 -13 1 0 10 11 7 6 10 -20 10 -26 0 -31 3 -20 10 12 8 10 10 -10 10
-20 0 -22 2 -10 10 11 7 6 10 -20 11 -19 0 -29 3 -23 6 21 8 -11 33 -44 34
l-28 1 25 8 25 8 -25 1 c-20 1 -22 3 -10 11 11 7 6 10 -20 10 -26 0 -31 3 -20
10 13 9 13 10 0 10 -13 0 -13 1 0 10 11 7 6 10 -20 10 -26 0 -31 3 -20 10 12
8 10 10 -10 10 -20 0 -22 2 -10 10 11 7 3 10 -30 11 -38 1 -41 2 -20 9 l25 8
-25 1 c-20 1 -22 3 -10 11 11 7 6 10 -20 11 -32 1 -33 2 -10 9 l25 8 -25 1
c-20 1 -22 3 -10 11 11 7 6 10 -20 10 -26 0 -31 3 -20 10 13 9 13 10 0 10 -13
0 -13 1 0 10 11 7 6 10 -20 10 -26 0 -31 3 -20 10 12 8 10 10 -10 10 -20 0
-22 2 -10 10 11 7 3 10 -30 11 -38 1 -41 2 -20 9 l25 8 -25 1 c-20 1 -22 3
-10 11 11 7 6 10 -20 11 -32 1 -33 2 -10 9 l25 8 -25 1 c-20 1 -22 3 -10 11
11 7 6 10 -20 10 -26 0 -31 3 -20 10 13 9 13 10 0 10 -13 0 -13 1 0 10 11 7 6
10 -20 10 -26 0 -31 3 -20 10 12 8 10 10 -10 10 -20 0 -22 2 -10 10 11 7 3 10
-30 11 -38 1 -41 2 -20 9 l25 8 -25 1 c-20 1 -22 3 -10 11 11 7 6 10 -20 11
-32 1 -33 2 -10 9 l25 8 -25 1 c-20 1 -22 3 -10 11 11 7 6 10 -20 11 -19 0
-29 3 -23 6 18 7 -9 33 -34 33 -15 0 -16 2 -3 10 12 8 10 10 -10 10 -20 0 -22
2 -10 10 11 7 3 10 -30 11 -38 1 -41 2 -20 9 l25 8 -25 1 c-20 1 -22 3 -10 11
11 7 6 10 -20 11 -32 1 -33 2 -10 9 l25 8 -25 1 c-20 1 -22 3 -10 11 11 7 6
10 -20 11 -19 0 -29 3 -23 6 18 7 -9 33 -34 33 -15 0 -16 2 -3 10 12 8 10 10
-10 10 -20 0 -22 2 -10 10 11 7 3 10 -30 11 -38 1 -41 2 -20 9 l25 8 -25 1
c-20 1 -22 3 -10 11 11 7 6 10 -20 11 -32 1 -33 2 -10 9 l25 8 -25 1 c-20 1
-22 3 -10 11 11 7 6 10 -20 10 -26 0 -31 3 -20 10 12 8 10 10 -10 10 -20 0
-22 2 -10 10 12 8 10 10 -10 10 -20 0 -22 2 -10 10 12 8 10 10 -10 10 -20 0
-22 2 -10 10 11 7 3 10 -30 11 -38 1 -41 2 -20 9 l25 8 -25 1 c-20 1 -22 3
-10 11 11 7 6 10 -20 10 -26 0 -31 3 -20 10 13 9 13 10 0 10 -13 0 -13 1 0 10
11 7 6 10 -20 10 -26 0 -31 3 -20 10 12 8 10 10 -10 10 -20 0 -22 2 -10 10 11
7 6 10 -20 11 -32 1 -33 2 -10 9 l25 8 -25 1 c-20 1 -22 3 -10 11 11 7 3 10
-30 11 -38 1 -41 2 -20 9 l25 8 -25 1 c-20 1 -22 3 -10 11 11 7 6 10 -20 10
-26 0 -31 3 -20 10 13 9 13 10 0 10 -13 0 -13 1 0 10 11 7 6 10 -20 10 -26 0
-31 3 -20 10 12 8 10 10 -10 10 -20 0 -22 2 -10 10 12 8 10 10 -10 10 -20 0
-22 2 -10 10 12 8 10 10 -10 10 -20 0 -22 2 -10 10 11 7 3 10 -30 11 -38 1
-41 2 -20 9 l25 8 -25 1 c-20 1 -22 3 -10 11 11 7 6 10 -20 10 -26 0 -31 3
-20 10 13 9 13 10 0 10 -13 0 -13 1 0 10 11 7 6 10 -20 10 -26 0 -31 3 -20 10
12 8 10 10 -10 10 -20 0 -22 2 -10 10 11 7 6 10 -20 11 -32 1 -33 2 -10 9 l25
8 -25 1 c-20 1 -22 3 -10 11 11 7 3 10 -30 11 -38 1 -41 2 -20 9 l25 8 -25 1
c-20 1 -22 3 -10 11 11 7 6 10 -20 10 -26 0 -31 3 -20 10 13 9 13 10 0 10 -13
0 -13 1 0 10 11 7 6 10 -20 10 -26 0 -31 3 -20 10 12 8 10 10 -10 10 -20 0
-22 2 -10 10 11 7 6 10 -20 11 -32 1 -33 2 -10 9 l25 8 -25 1 c-20 1 -22 3
-10 11 11 7 3 10 -30 11 -38 1 -41 2 -20 9 l25 8 -25 1 c-20 1 -22 3 -10 11
11 7 6 10 -20 10 -26 0 -31 3 -20 10 13 9 13 10 0 10 -13 0 -13 1 0 10 11 7 6
10 -20 10 -26 0 -31 3 -20 10 12 8 10 10 -10 10 -20 0 -22 2 -10 10 11 7 6 10
-20 10 -26 0 -31 3 -20 10 13 9 13 10 0 10 -13 0 -13 1 0 10 11 7 3 10 -30 11
-38 1 -41 2 -20 9 l25 8 -25 1 c-20 1 -22 3 -10 11 11 7 6 10 -20 10 -26 0
-31 3 -20 10 13 9 13 10 0 10 -13 0 -13 1 0 10 11 7 3 10 -30 11 -38 1 -41 2
-20 9 l25 8 -25 1 c-20 1 -22 3 -10 11 11 7 6 10 -20 11 -19 0 -29 3 -23 6 21
8 -11 33 -44 34 l-28 1 25 8 25 8 -25 1 c-20 1 -22 3 -10 11 11 7 6 10 -20 10
-26 0 -31 3 -20 10 13 9 13 10 0 10 -13 0 -13 1 0 10 11 7 6 10 -20 10 -26 0
-31 3 -20 10 12 8 10 10 -10 10 -20 0 -22 2 -10 10 11 7 6 10 -20 11 -19 0
-29 3 -23 6 21 8 -12 33 -44 33 -22 0 -25 2 -13 10 13 9 13 10 0 10 -13 0 -13
1 0 10 11 7 6 10 -20 10 -26 0 -31 3 -20 10 13 9 13 10 0 10 -13 0 -13 1 0 10
11 7 3 10 -30 11 -38 1 -41 2 -20 9 l25 8 -25 1 c-20 1 -22 3 -10 11 11 7 3
10 -30 11 -38 1 -41 2 -20 9 l25 8 -25 1 c-20 1 -22 3 -10 11 12 8 10 10 -10
10 -20 0 -22 2 -10 10 11 7 6 10 -20 11 -32 1 -33 2 -10 9 l25 8 -25 1 c-20 1
-22 3 -10 11 11 7 3 10 -30 11 -38 1 -41 2 -20 9 l25 8 -25 1 c-20 1 -22 3
-10 11 11 7 6 10 -20 10 -26 0 -31 3 -20 10 13 9 13 10 0 10 -13 0 -13 1 0 10
11 7 6 10 -20 10 -26 0 -31 3 -20 10 12 8 10 10 -10 10 -20 0 -22 2 -10 10 11
7 6 10 -20 11 -32 1 -33 2 -10 9 l25 8 -25 1 c-20 1 -22 3 -10 11 11 7 3 10
-30 11 -38 1 -41 2 -20 9 l25 8 -25 1 c-20 1 -22 3 -10 11 11 7 6 10 -20 10
-26 0 -31 3 -20 10 13 9 13 10 0 10 -13 0 -13 1 0 10 11 7 5 10 -22 10 l-38 0
0 -2420z"/>
</g>
</svg>
